<svg width="84" height="84" viewBox="0 0 84 84" fill="none" xmlns="http://www.w3.org/2000/svg">
<g filter="url(#filter0_di_253_377)">
<path fill-rule="evenodd" clip-rule="evenodd" d="M44.8825 26C45.5926 26 46.1682 26.5756 46.1682 27.2857V29.3214H47.9429C49.363 29.3214 50.5143 30.4727 50.5143 31.8929V33.6691H52.6035C53.3136 33.6691 53.8892 34.2447 53.8892 34.9548C53.8892 35.6649 53.3136 36.2405 52.6035 36.2405H50.5143V39.5483H52.6035C53.3136 39.5483 53.8892 40.124 53.8892 40.8341C53.8892 41.5441 53.3136 42.1198 52.6035 42.1198H50.5143V43.8928C50.5143 45.3131 49.363 46.4642 47.9429 46.4642H46.1682V48.5769C46.1682 49.287 45.5926 49.8626 44.8825 49.8626C44.1725 49.8626 43.5968 49.287 43.5968 48.5769V46.4642H40.2892V48.5769C40.2892 49.287 39.7136 49.8626 39.0035 49.8626C38.2934 49.8626 37.7178 49.287 37.7178 48.5769V46.4642H35.9428C34.5226 46.4642 33.3714 45.3131 33.3714 43.8928V42.1198H31.2857C30.5756 42.1198 30 41.5441 30 40.8341C30 40.124 30.5756 39.5483 31.2857 39.5483H33.3714V36.2405H31.2857C30.5756 36.2405 30 35.6649 30 34.9548C30 34.2447 30.5756 33.6691 31.2857 33.6691H33.3714V31.8929C33.3714 30.4727 34.5226 29.3214 35.9428 29.3214H37.7178V27.2857C37.7178 26.5756 38.2934 26 39.0035 26C39.7136 26 40.2892 26.5756 40.2892 27.2857V29.3214H43.5968V27.2857C43.5968 26.5756 44.1725 26 44.8825 26ZM40.6463 33.7626C40.9479 32.3847 42.9098 32.3762 43.2234 33.7513L43.2373 33.8125C43.2466 33.8533 43.2552 33.8915 43.2644 33.9307C43.5933 35.3314 44.7269 36.4017 46.1459 36.6485C47.5844 36.8988 47.5844 38.9639 46.1459 39.2142C44.7193 39.4624 43.5812 40.5428 43.2592 41.9545L43.2234 42.1114C42.9098 43.4865 40.9479 43.4779 40.6463 42.1002L40.6169 41.9655C40.3067 40.5488 39.1703 39.4605 37.7415 39.2119C36.3055 38.9621 36.3055 36.9006 37.7415 36.6508C39.1654 36.4031 40.2988 35.3215 40.6136 33.912L40.6352 33.8136L40.6463 33.7626Z" fill="white"/>
</g>
<defs>
<filter id="filter0_di_253_377" x="0" y="0" width="83.8887" height="83.8625" filterUnits="userSpaceOnUse" color-interpolation-filters="sRGB">
<feFlood flood-opacity="0" result="BackgroundImageFix"/>
<feColorMatrix in="SourceAlpha" type="matrix" values="0 0 0 0 0 0 0 0 0 0 0 0 0 0 0 0 0 0 127 0" result="hardAlpha"/>
<feOffset dy="4"/>
<feGaussianBlur stdDeviation="15"/>
<feComposite in2="hardAlpha" operator="out"/>
<feColorMatrix type="matrix" values="0 0 0 0 0 0 0 0 0 0 0 0 0 0 0 0 0 0 0.2 0"/>
<feBlend mode="normal" in2="BackgroundImageFix" result="effect1_dropShadow_253_377"/>
<feBlend mode="normal" in="SourceGraphic" in2="effect1_dropShadow_253_377" result="shape"/>
<feColorMatrix in="SourceAlpha" type="matrix" values="0 0 0 0 0 0 0 0 0 0 0 0 0 0 0 0 0 0 127 0" result="hardAlpha"/>
<feOffset dy="4"/>
<feGaussianBlur stdDeviation="2"/>
<feComposite in2="hardAlpha" operator="arithmetic" k2="-1" k3="1"/>
<feColorMatrix type="matrix" values="0 0 0 0 0 0 0 0 0 0 0 0 0 0 0 0 0 0 0.25 0"/>
<feBlend mode="normal" in2="shape" result="effect2_innerShadow_253_377"/>
</filter>
</defs>
</svg>
