<svg width="75" height="68" viewBox="0 0 75 68" fill="none" xmlns="http://www.w3.org/2000/svg">
<g filter="url(#filter0_di_493_4)">
<path fill-rule="evenodd" clip-rule="evenodd" d="M24.9393 25.7829L24.0311 33.9559C23.7025 36.9147 26.0185 39.5025 28.9956 39.5025C30.8876 39.5025 32.6172 38.4336 33.4632 36.7413L34.2496 35.1686H40.7504L41.5368 36.7413C42.3828 38.4336 44.1124 39.5025 46.0044 39.5025C48.9815 39.5025 51.2975 36.9147 50.9689 33.9559L50.0607 25.7829C49.6948 22.4908 46.9122 20 43.5996 20H31.4004C28.0878 20 25.3052 22.4908 24.9393 25.7829ZM31.8119 24.063C32.5597 24.063 33.1662 24.6695 33.1662 25.4175V26.5914H34.3401C35.0881 26.5914 35.6944 27.1977 35.6944 27.9457C35.6944 28.6937 35.0881 29.3 34.3401 29.3H33.1662V30.4737C33.1662 31.2217 32.5597 31.828 31.8117 31.828C31.0639 31.828 30.4574 31.2217 30.4574 30.4737V29.3H29.2839C28.5359 29.3 27.9296 28.6937 27.9296 27.9457C27.9296 27.1977 28.5359 26.5914 29.2839 26.5914H30.4574V25.4173C30.4574 24.6695 31.0639 24.063 31.8119 24.063ZM42.4096 30.6544C43.1576 30.6544 43.7639 30.048 43.7639 29.3C43.7639 28.552 43.1576 27.9457 42.4096 27.9457C41.6616 27.9457 41.0553 28.552 41.0553 29.3C41.0553 30.048 41.6616 30.6544 42.4096 30.6544ZM46.4724 25.9422C46.4724 26.6902 45.866 27.2965 45.118 27.2965C44.3702 27.2965 43.7639 26.6902 43.7639 25.9422C43.7639 25.1941 44.3702 24.5878 45.118 24.5878C45.866 24.5878 46.4724 25.1941 46.4724 25.9422Z" fill="white"/>
</g>
<defs>
<filter id="filter0_di_493_4" x="0" y="0" width="75" height="67.5026" filterUnits="userSpaceOnUse" color-interpolation-filters="sRGB">
<feFlood flood-opacity="0" result="BackgroundImageFix"/>
<feColorMatrix in="SourceAlpha" type="matrix" values="0 0 0 0 0 0 0 0 0 0 0 0 0 0 0 0 0 0 127 0" result="hardAlpha"/>
<feOffset dy="4"/>
<feGaussianBlur stdDeviation="12"/>
<feComposite in2="hardAlpha" operator="out"/>
<feColorMatrix type="matrix" values="0 0 0 0 0 0 0 0 0 0 0 0 0 0 0 0 0 0 0.25 0"/>
<feBlend mode="normal" in2="BackgroundImageFix" result="effect1_dropShadow_493_4"/>
<feBlend mode="normal" in="SourceGraphic" in2="effect1_dropShadow_493_4" result="shape"/>
<feColorMatrix in="SourceAlpha" type="matrix" values="0 0 0 0 0 0 0 0 0 0 0 0 0 0 0 0 0 0 127 0" result="hardAlpha"/>
<feOffset dy="4"/>
<feGaussianBlur stdDeviation="2"/>
<feComposite in2="hardAlpha" operator="arithmetic" k2="-1" k3="1"/>
<feColorMatrix type="matrix" values="0 0 0 0 0 0 0 0 0 0 0 0 0 0 0 0 0 0 0.25 0"/>
<feBlend mode="normal" in2="shape" result="effect2_innerShadow_493_4"/>
</filter>
</defs>
</svg>
