<svg width="23" height="25" viewBox="0 0 23 25" fill="none" xmlns="http://www.w3.org/2000/svg">
<g filter="url(#filter0_i_202_13)">
<path fill-rule="evenodd" clip-rule="evenodd" d="M8.89933 1.23214L8.07254 3.36607L5.22611 4.98036L2.95826 4.63393C2.58004 4.58231 2.19503 4.6444 1.85222 4.81231C1.50942 4.98021 1.22433 5.24633 1.03326 5.57679L0.265398 6.92321C0.0682362 7.25849 -0.0226322 7.64568 0.00478511 8.03366C0.0322024 8.42165 0.176617 8.79221 0.41897 9.09643L1.86004 10.8839V14.1161L0.458256 15.9036C0.215903 16.2078 0.0714881 16.5784 0.0440708 16.9663C0.0166534 17.3543 0.107522 17.7415 0.304684 18.0768L1.07254 19.4232C1.26361 19.7537 1.5487 20.0198 1.89151 20.1877C2.23431 20.3556 2.61933 20.4177 2.99754 20.3661L5.2654 20.0196L8.07433 21.6339L8.90111 23.7696C9.04027 24.1307 9.28519 24.4413 9.60381 24.6608C9.92243 24.8803 10.2999 24.9986 10.6868 25H12.3029C12.6906 24.9991 13.069 24.881 13.3884 24.6611C13.7077 24.4412 13.9531 24.1298 14.0922 23.7679L14.919 21.6339L17.7261 20.0196L19.994 20.3661C20.3722 20.4177 20.7572 20.3556 21.1 20.1877C21.4428 20.0198 21.7279 19.7537 21.919 19.4232L22.6868 18.0768C22.884 17.7415 22.9749 17.3543 22.9474 16.9663C22.92 16.5784 22.7756 16.2078 22.5333 15.9036L21.0922 14.1161V10.8839L22.4958 9.09643C22.7381 8.79221 22.8825 8.42165 22.9099 8.03366C22.9374 7.64568 22.8465 7.25849 22.6493 6.92321L21.8815 5.57679C21.6906 5.24617 21.4055 4.97991 21.0627 4.81198C20.7198 4.64405 20.3347 4.58207 19.9565 4.63393L17.6886 4.98036L14.8797 3.36607L14.0529 1.23036C13.9134 0.869182 13.6682 0.558514 13.3492 0.338994C13.0303 0.119474 12.6526 0.00132436 12.2654 0H10.6868C10.2994 0.00146396 9.92154 0.119876 9.60259 0.339731C9.28364 0.559586 9.03852 0.870634 8.89933 1.23214ZM11.4761 16.5179C12.5417 16.5179 13.5637 16.0945 14.3172 15.3411C15.0707 14.5876 15.494 13.5656 15.494 12.5C15.494 11.4344 15.0707 10.4124 14.3172 9.65895C13.5637 8.90545 12.5417 8.48214 11.4761 8.48214C10.4105 8.48214 9.38855 8.90545 8.63506 9.65895C7.88156 10.4124 7.45826 11.4344 7.45826 12.5C7.45826 13.5656 7.88156 14.5876 8.63506 15.3411C9.38855 16.0945 10.4105 16.5179 11.4761 16.5179Z" fill="white"/>
</g>
<defs>
<filter id="filter0_i_202_13" x="0" y="0" width="22.9521" height="29" filterUnits="userSpaceOnUse" color-interpolation-filters="sRGB">
<feFlood flood-opacity="0" result="BackgroundImageFix"/>
<feBlend mode="normal" in="SourceGraphic" in2="BackgroundImageFix" result="shape"/>
<feColorMatrix in="SourceAlpha" type="matrix" values="0 0 0 0 0 0 0 0 0 0 0 0 0 0 0 0 0 0 127 0" result="hardAlpha"/>
<feOffset dy="4"/>
<feGaussianBlur stdDeviation="2"/>
<feComposite in2="hardAlpha" operator="arithmetic" k2="-1" k3="1"/>
<feColorMatrix type="matrix" values="0 0 0 0 0 0 0 0 0 0 0 0 0 0 0 0 0 0 0.25 0"/>
<feBlend mode="normal" in2="shape" result="effect1_innerShadow_202_13"/>
</filter>
</defs>
</svg>
