<svg width="27" height="20" viewBox="0 0 27 20" fill="none" xmlns="http://www.w3.org/2000/svg">
<g filter="url(#filter0_i_493_4)">
<path fill-rule="evenodd" clip-rule="evenodd" d="M0.93932 5.78295L0.0311225 13.9559C-0.297521 16.9147 2.01853 19.5025 4.99561 19.5025C6.88757 19.5025 8.61718 18.4336 9.46319 16.7413L10.2496 15.1686H16.7504L17.5368 16.7413C18.3828 18.4336 20.1124 19.5025 22.0044 19.5025C24.9815 19.5025 27.2975 16.9147 26.9689 13.9559L26.0607 5.78295C25.6948 2.4908 22.9122 0 19.5996 0H7.40041C4.08781 0 1.30516 2.4908 0.93932 5.78295ZM7.81191 4.06298C8.55972 4.06298 9.16623 4.6695 9.16623 5.4175V6.59137H10.3401C11.0881 6.59137 11.6944 7.19769 11.6944 7.9457C11.6944 8.69371 11.0881 9.30002 10.3401 9.30002H9.16623V10.4737C9.16623 11.2217 8.55972 11.828 7.81171 11.828C7.0639 11.828 6.45738 11.2217 6.45738 10.4737V9.30002H5.28391C4.5359 9.30002 3.92958 8.69371 3.92958 7.9457C3.92958 7.19769 4.5359 6.59137 5.28391 6.59137H6.45738V5.41731C6.45738 4.66949 7.0639 4.06298 7.81191 4.06298ZM18.4096 10.6544C19.1576 10.6544 19.7639 10.048 19.7639 9.30002C19.7639 8.55202 19.1576 7.9457 18.4096 7.9457C17.6616 7.9457 17.0553 8.55202 17.0553 9.30002C17.0553 10.048 17.6616 10.6544 18.4096 10.6544ZM22.4724 5.94215C22.4724 6.69016 21.866 7.29648 21.118 7.29648C20.3702 7.29648 19.7639 6.69016 19.7639 5.94215C19.7639 5.19414 20.3702 4.58783 21.118 4.58783C21.866 4.58783 22.4724 5.19414 22.4724 5.94215Z" fill="white"/>
</g>
<defs>
<filter id="filter0_i_493_4" x="0" y="0" width="27" height="23.5026" filterUnits="userSpaceOnUse" color-interpolation-filters="sRGB">
<feFlood flood-opacity="0" result="BackgroundImageFix"/>
<feBlend mode="normal" in="SourceGraphic" in2="BackgroundImageFix" result="shape"/>
<feColorMatrix in="SourceAlpha" type="matrix" values="0 0 0 0 0 0 0 0 0 0 0 0 0 0 0 0 0 0 127 0" result="hardAlpha"/>
<feOffset dy="4"/>
<feGaussianBlur stdDeviation="2"/>
<feComposite in2="hardAlpha" operator="arithmetic" k2="-1" k3="1"/>
<feColorMatrix type="matrix" values="0 0 0 0 0 0 0 0 0 0 0 0 0 0 0 0 0 0 0.25 0"/>
<feBlend mode="normal" in2="shape" result="effect1_innerShadow_493_4"/>
</filter>
</defs>
</svg>
