<svg width="25" height="25" viewBox="0 0 25 25" fill="none" xmlns="http://www.w3.org/2000/svg">
<g filter="url(#filter0_i_202_12)">
<path fill-rule="evenodd" clip-rule="evenodd" d="M0 2.67857C0 1.19924 1.19924 0 2.67857 0H15.1786C16.6579 0 17.8571 1.19924 17.8571 2.67857V8.48211H16.9364C16.7778 7.22066 15.955 6.12416 14.7596 5.629C13.425 5.07621 11.8889 5.38177 10.8675 6.40318L7.29605 9.97461C5.90132 11.3693 5.90132 13.6306 7.29605 15.0254L10.8675 18.5968C11.8889 19.6182 13.425 19.9237 14.7596 19.3711C15.955 18.8759 16.7778 17.7793 16.9364 16.5178H17.8571V22.3214C17.8571 23.8007 16.6579 25 15.1786 25H2.67857C1.19924 25 0 23.8007 0 22.3214V2.67857ZM13.9054 7.69127C14.4058 7.89857 14.7321 8.38693 14.7321 8.92861V10.7143H23.2143C24.2005 10.7143 25 11.5138 25 12.5C25 13.4863 24.2005 14.2857 23.2143 14.2857H14.7321V16.0715C14.7321 16.6132 14.4058 17.1015 13.9054 17.3088C13.4049 17.5161 12.8289 17.4015 12.4458 17.0185L8.87441 13.4471C8.35139 12.924 8.35139 12.076 8.87441 11.553L12.4458 7.98159C12.8289 7.59855 13.4049 7.48398 13.9054 7.69127Z" fill="white"/>
</g>
<defs>
<filter id="filter0_i_202_12" x="0" y="0" width="25" height="29" filterUnits="userSpaceOnUse" color-interpolation-filters="sRGB">
<feFlood flood-opacity="0" result="BackgroundImageFix"/>
<feBlend mode="normal" in="SourceGraphic" in2="BackgroundImageFix" result="shape"/>
<feColorMatrix in="SourceAlpha" type="matrix" values="0 0 0 0 0 0 0 0 0 0 0 0 0 0 0 0 0 0 127 0" result="hardAlpha"/>
<feOffset dy="4"/>
<feGaussianBlur stdDeviation="2"/>
<feComposite in2="hardAlpha" operator="arithmetic" k2="-1" k3="1"/>
<feColorMatrix type="matrix" values="0 0 0 0 0 0 0 0 0 0 0 0 0 0 0 0 0 0 0.25 0"/>
<feBlend mode="normal" in2="shape" result="effect1_innerShadow_202_12"/>
</filter>
</defs>
</svg>
