<svg width="71" height="73" viewBox="0 0 71 73" fill="none" xmlns="http://www.w3.org/2000/svg">
<g filter="url(#filter0_di_202_13)">
<path fill-rule="evenodd" clip-rule="evenodd" d="M32.8993 21.2321L32.0725 23.3661L29.2261 24.9804L26.9583 24.6339C26.58 24.5823 26.195 24.6444 25.8522 24.8123C25.5094 24.9802 25.2243 25.2463 25.0333 25.5768L24.2654 26.9232C24.0682 27.2585 23.9774 27.6457 24.0048 28.0337C24.0322 28.4217 24.1766 28.7922 24.419 29.0964L25.86 30.8839V34.1161L24.4583 35.9036C24.2159 36.2078 24.0715 36.5784 24.0441 36.9663C24.0167 37.3543 24.1075 37.7415 24.3047 38.0768L25.0725 39.4232C25.2636 39.7537 25.5487 40.0198 25.8915 40.1877C26.2343 40.3556 26.6193 40.4177 26.9975 40.3661L29.2654 40.0196L32.0743 41.6339L32.9011 43.7696C33.0403 44.1307 33.2852 44.4413 33.6038 44.6608C33.9224 44.8803 34.2999 44.9986 34.6868 45H36.3029C36.6906 44.9991 37.069 44.881 37.3884 44.6611C37.7077 44.4412 37.9531 44.1298 38.0922 43.7679L38.919 41.6339L41.7261 40.0196L43.994 40.3661C44.3722 40.4177 44.7572 40.3556 45.1 40.1877C45.4428 40.0198 45.7279 39.7537 45.919 39.4232L46.6868 38.0768C46.884 37.7415 46.9749 37.3543 46.9474 36.9663C46.92 36.5784 46.7756 36.2078 46.5333 35.9036L45.0922 34.1161V30.8839L46.4958 29.0964C46.7381 28.7922 46.8825 28.4217 46.9099 28.0337C46.9374 27.6457 46.8465 27.2585 46.6493 26.9232L45.8815 25.5768C45.6906 25.2462 45.4055 24.9799 45.0627 24.812C44.7198 24.6441 44.3347 24.5821 43.9565 24.6339L41.6886 24.9804L38.8797 23.3661L38.0529 21.2304C37.9134 20.8692 37.6682 20.5585 37.3492 20.339C37.0303 20.1195 36.6526 20.0013 36.2654 20H34.6868C34.2994 20.0015 33.9215 20.1199 33.6026 20.3397C33.2836 20.5596 33.0385 20.8706 32.8993 21.2321ZM35.4761 36.5179C36.5417 36.5179 37.5637 36.0945 38.3172 35.3411C39.0707 34.5876 39.494 33.5656 39.494 32.5C39.494 31.4344 39.0707 30.4124 38.3172 29.6589C37.5637 28.9055 36.5417 28.4821 35.4761 28.4821C34.4105 28.4821 33.3886 28.9055 32.6351 29.6589C31.8816 30.4124 31.4583 31.4344 31.4583 32.5C31.4583 33.5656 31.8816 34.5876 32.6351 35.3411C33.3886 36.0945 34.4105 36.5179 35.4761 36.5179Z" fill="white"/>
</g>
<defs>
<filter id="filter0_di_202_13" x="0" y="0" width="70.9521" height="73" filterUnits="userSpaceOnUse" color-interpolation-filters="sRGB">
<feFlood flood-opacity="0" result="BackgroundImageFix"/>
<feColorMatrix in="SourceAlpha" type="matrix" values="0 0 0 0 0 0 0 0 0 0 0 0 0 0 0 0 0 0 127 0" result="hardAlpha"/>
<feOffset dy="4"/>
<feGaussianBlur stdDeviation="12"/>
<feComposite in2="hardAlpha" operator="out"/>
<feColorMatrix type="matrix" values="0 0 0 0 0 0 0 0 0 0 0 0 0 0 0 0 0 0 0.25 0"/>
<feBlend mode="normal" in2="BackgroundImageFix" result="effect1_dropShadow_202_13"/>
<feBlend mode="normal" in="SourceGraphic" in2="effect1_dropShadow_202_13" result="shape"/>
<feColorMatrix in="SourceAlpha" type="matrix" values="0 0 0 0 0 0 0 0 0 0 0 0 0 0 0 0 0 0 127 0" result="hardAlpha"/>
<feOffset dy="4"/>
<feGaussianBlur stdDeviation="2"/>
<feComposite in2="hardAlpha" operator="arithmetic" k2="-1" k3="1"/>
<feColorMatrix type="matrix" values="0 0 0 0 0 0 0 0 0 0 0 0 0 0 0 0 0 0 0.25 0"/>
<feBlend mode="normal" in2="shape" result="effect2_innerShadow_202_13"/>
</filter>
</defs>
</svg>
